# AST/ASF file generated using VICON BodyLanguage
# -----------------------------------------------
:version 1.10
:name VICON
:units
  mass 1.0
  length 0.45
  angle deg
:documentation
   .ast/.asf automatically generated from VICON data using
   VICON BodyBuilder and BodyLanguage model FoxedUp or BRILLIANT.MOD
:root
   order TX TY TZ RX RY RZ
   axis XYZ
   position 0 0 0  
   orientation 0 0 0 
:bonedata
  begin
     id 1 
     name lhipjoint
     direction 0.660183 -0.676772 0.325788 
     length 2.75133 
     axis 0 0 0  XYZ
  end
  begin
     id 2 
     name lfemur
     direction 0.34202 -0.939693 0  
     length 7.70317  
     axis 0 0 20  XYZ
    dof rx ry rz
    limits (-160.0 20.0)
           (-70.0 70.0)
           (-60.0 70.0)
  end
  begin
     id 3 
     name ltibia
     direction 0.342105 -0.939662 0   
     length 7.18701   
     axis 0 0 20   XYZ
    dof rx
    limits (-10.0 170.0)
  end
  begin
     id 4 
     name lfoot
     direction 0.14163 -0.389126 0.910232   
     length 2.41719   
     axis -90 7.62852e-016 20   XYZ
    dof rx rz
    limits (-45.0 90.0)
           (-70.0 20.0)
  end
  begin
     id 5 
     name ltoes
     direction 1.53533e-011 -4.21926e-011 1   
     length 1.18611   
     axis -90 7.62852e-016 20   XYZ
    dof rx
    limits (-90.0 20.0)
  end
  begin
     id 6 
     name rhipjoint
     direction -0.6658 -0.67229 0.323631   
     length 2.76968  
     axis 0 0 0  XYZ 
  end
  begin
     id 7 
     name rfemur
     direction -0.34202 -0.939693 0   
     length 7.92547   
     axis 0 0 -20   XYZ
    dof rx ry rz
    limits (-160.0 20.0)
           (-70.0 70.0)
           (-70.0 60.0)
  end
  begin
     id 8 
     name rtibia
     direction -0.342022 -0.939692 0   
     length 7.22641   
     axis 0 0 -20   XYZ
    dof rx
    limits (-10.0 170.0)
 end
 begin
     id 9 
     name rfoot
     direction -0.105675 -0.29034 0.951071   
     length 2.48149  
     axis -90 -7.62852e-016 -20   XYZ
    dof rx rz
    limits (-45.0 90.0)
           (-20.0 70.0)
  end
  begin
     id 10 
     name rtoes
     direction -1.5349e-011 -4.21859e-011 1   
     length 1.23343   
     axis -90 -7.62852e-016 -20   XYZ
    dof rx
    limits (-90.0 20.0)
  end
  begin
     id 11 
     name lowerback
     direction 0.0104173 0.993624 -0.112266   
     length 2.00527   
     axis 0 0 0   XYZ
    dof rx ry rz
    limits (-20.0 45.0)
           (-30.0 30.0)
           (-30.0 30.0)
  end
  begin
     id 12 
     name upperback
     direction 0.00733149 0.999856 -0.0152913   
     length 2.01385   
     axis 0 0 0   XYZ
    dof rx ry rz
    limits (-20.0 45.0)
           (-30.0 30.0)
           (-30.0 30.0)
  end
  begin
     id 13 
     name thorax
     direction 0.0026304 0.999318 0.036841   
     length 2.03734   
     axis 0 0 0   XYZ
    dof rx ry rz
    limits (-20.0 45.0)
           (-30.0 30.0)
           (-30.0 30.0)
  end
  begin
     id 14 
     name lowerneck
     direction 0.0293154 0.998757 0.0403082   
     length 1.65303   
     axis 0 0 0   XYZ
    dof rx ry rz
    limits (-20.0 45.0)
           (-30.0 30.0)
           (-30.0 30.0)
  end
  begin
     id 15 
     name upperneck
     direction -0.0376619 0.998184 -0.0470083   
     length 1.60926   
     axis 0 0 0   XYZ
    dof rx ry rz
    limits (-20.0 45.0)
           (-30.0 30.0)
           (-30.0 30.0)
  end
  begin
     id 16
     name head
     direction -0.0170133 0.999635 -0.0209778  
     length 1.73625  
     axis 0 0 0   XYZ
    dof rx ry rz
    limits (-20.0 45.0)
           (-30.0 30.0)
           (-30.0 30.0)
  end
  begin
     id 17 
     name lclavicle
     direction 0.919857 0.39181 -0.0186333  
     length 3.75313  
     axis 0 0 0   XYZ
    dof ry rz
    limits (-20.0 10.0)
           (0.0 20.0)
  end
  begin
     id 18 
     name lhumerus
     direction 1 -4.48988e-011 1.44029e-027   
     length 5.49313   
     axis 180 -30 -90   XYZ
    dof rx ry rz
    limits (-60.0 90.0)
           (-90.0 90.0)
           (-90.0 90.0)
  end
  begin
     id 19
     name lradius
     direction 1 -4.48924e-011 7.46281e-027   
     length 3.29037   
     axis 180 -30 -90   XYZ
    dof rx
    limits (-10.0 170.0)
  end
  begin
     id 20
     name lwrist
     direction 1 -4.48955e-011 2.19879e-026   
     length 1.64519   
     axis -1.34358e-014 90 90   XYZ
    dof ry
    limits (-180.0 0.0)
 end
  begin
     id 21 
     name lhand
     direction 1 -4.48978e-011 4.39747e-026   
     length 0.729656   
     axis -2.80598e-014 90 90   XYZ
    dof rx rz
    limits (-90.0 90.0)
           (-45.0 45.0)
  end
  begin
     id 22 
     name lfingers
     direction 1 -4.49071e-011 8.79411e-026   
     length 0.588268   
     axis -5.61193e-014 90 90   XYZ
    dof rx
    limits (0.0 90.0)
  end
  begin
     id 23
     name lthumb
     direction 0.707107 -6.34817e-011 0.707107   
     length 0.844638   
     axis -90 45 -9.86923e-015   XYZ
    dof rx rz
    limits (-45.0 45.0)
           (-45.0 45.0)
  end
  begin
     id 24 
     name rclavicle
     direction -0.919898 0.388279 0.0550233   
     length 3.7171  
     axis 0 0 0   XYZ 
    dof ry rz
    limits (-10.0 20.0)
           (-20.0 0.0)
  end
  begin
     id 25 
     name rhumerus
     direction -1 -4.48968e-011 9.98372e-028  
     length 5.23684   
     axis 180 30 90   XYZ
    dof rx ry rz
    limits (-90.0 60.0)
           (-90.0 90.0)
           (-90.0 90.0)
  end
  begin
     id 26 
     name rradius
     direction -1 -4.48956e-011 1.01023e-026   
     length 3.38251   
     axis 180 30 90   XYZ
    dof rx
    limits (-10.0 170.0)
  end
  begin
     id 27 
     name rwrist
     direction -1 -4.4892e-011 2.19886e-026   
     length 1.69126   
     axis -1.34358e-014 -90 -90   XYZ
    dof ry
    limits (-180.0 0.0)
  end
  begin
     id 28
     name rhand
     direction -1 -4.49024e-011 4.39727e-026   
     length 0.691454   
     axis -2.80598e-014 -90 -90   XYZ
    dof rx rz
    limits (-90.0 90.0)
           (-45.0 45.0)
  end
  begin
     id 29
     name rfingers
     direction -1 -4.49097e-011 8.79388e-026   
     length 0.557468   
     axis -5.61193e-014 -90 -90   XYZ
    dof rx
    limits (0.0 90.0)
  end
  begin
     id 30
     name rthumb
     direction -0.707107 -6.34938e-011 0.707107   
     length 0.800416   
     axis -90 -45 9.86923e-015   XYZ
    dof rx rz
    limits (-45.0 45.0)
           (-45.0 45.0)
  end
:hierarchy
  begin
    root lhipjoint rhipjoint lowerback
    lhipjoint lfemur
    lfemur ltibia
    ltibia lfoot
    lfoot ltoes
    rhipjoint rfemur
    rfemur rtibia
    rtibia rfoot
    rfoot rtoes
    lowerback upperback
    upperback thorax
    thorax lowerneck lclavicle rclavicle
    lowerneck upperneck
    upperneck head
    lclavicle lhumerus
    lhumerus lradius
    lradius lwrist
    lwrist lhand lthumb
    lhand lfingers
    rclavicle rhumerus
    rhumerus rradius
    rradius rwrist
    rwrist rhand rthumb
    rhand rfingers
  end

#!OML:ASF H:\BabyWalks\Project 1\Capture day 1\Session 1\baby.ASF
:FULLY-SPECIFIED
:DEGREES
273
root -26.3867 17.7262 -1.13287 -23.6988 82.479 -32.0386
lowerback 16.264 0.0665932 2.57177
upperback 3.59192 0.811621 1.85081
thorax -5.27792 0.448078 0.328491
lowerneck -6.31135 2.28639 2.95621
upperneck -3.8543 2.89866 -5.41529
head -0.00241741 1.44056 -2.14616
rclavicle 2.21645e-014 1.96797e-014
rhumerus -48.1482 10.6786 -83.8998
rradius 48.1547
rwrist -4.39672
rhand -9.42844 -14.9339
rfingers 7.12502
rthumb 16.534 -44.2495
lclavicle 2.21645e-014 1.96797e-014
lhumerus -58.3177 0.303254 79.4938
lradius 43.7079
lwrist -1.60349
lhand 4.42871 9.45787
lfingers 7.12502
lthumb 29.8249 37.0767
rfemur 7.64893 12.1707 26.3774
rtibia 13.5845
rfoot -13.773 -1.19973
rtoes -16.2637
lfemur -34.2285 -2.73736 -10.5476
ltibia 38.6309
lfoot -22.0612 -11.0595
ltoes -8.64114
274
root -26.1974 17.7263 -1.12648 -23.7866 82.2927 -32.135
lowerback 16.1096 0.175246 2.4665
upperback 3.57887 0.917056 1.70067
thorax -5.20602 0.498973 0.208878
lowerneck -6.34684 2.23523 2.98075
upperneck -3.66618 2.83208 -5.06504
head 0.0534662 1.40355 -2.03592
rclavicle -8.94531e-016 -1.26228e-014
rhumerus -48.0936 10.8539 -84.0425
rradius 48.5027
rwrist -4.57828
rhand -9.26669 -14.7015
rfingers 7.12502
rthumb 16.6897 -44.004
lclavicle -8.94531e-016 -1.26228e-014
lhumerus -58.4034 0.0811218 79.4491
lradius 44.0678
lwrist -1.21377
lhand 4.39422 9.61003
lfingers 7.12502
lthumb 29.792 37.2348
rfemur 8.27742 12.1291 26.4067
rtibia 13.4311
rfoot -13.0734 -0.548853
rtoes -16.6784
lfemur -34.1696 -2.9669 -10.4909
ltibia 37.256
lfoot -21.598 -10.8911
ltoes -8.65467
275
root -26.0079 17.7192 -1.12015 -23.7419 82.0612 -32.0678
lowerback 15.9684 0.287161 2.32965
upperback 3.57295 1.02299 1.54998
thorax -5.13397 0.550764 0.107037
lowerneck -6.36626 2.19229 3.01772
upperneck -3.48251 2.77496 -4.71084
head 0.105845 1.37198 -1.9272
rclavicle -9.34288e-015 -1.78906e-014
rhumerus -48.0196 11.0282 -84.1739
rradius 48.8227
rwrist -4.6958
rhand -9.1539 -14.5235
rfingers 7.12502
rthumb 16.7983 -43.8169
lclavicle -9.34288e-015 -1.78906e-014
lhumerus -58.4911 -0.146849 79.4089
lradius 44.4501
lwrist -0.837336
lhand 4.33928 9.73552
lfingers 7.12502
lthumb 29.7396 37.3696
rfemur 8.76814 12.0747 26.4192
rtibia 13.6313
rfoot -12.49 0.148293
rtoes -17.2647
lfemur -34.0608 -3.11589 -10.4492
ltibia 36.1465
lfoot -20.9892 -10.7652
ltoes -8.92621
276
root -25.8186 17.7037 -1.11402 -23.6221 81.7898 -31.8965
lowerback 15.8459 0.395948 2.17004
upperback 3.56824 1.12285 1.40042
thorax -5.07117 0.599926 0.0208912
lowerneck -6.36978 2.16103 3.06569
upperneck -3.30143 2.73211 -4.35689
head 0.155539 1.34826 -1.82093
rclavicle 9.78393e-015 1.21134e-014
rhumerus -47.9335 11.2092 -84.2992
rradius 49.1145
rwrist -4.77173
rhand -9.09395 -14.3926
rfingers 7.12502
rthumb 16.856 -43.681
lclavicle 9.78393e-015 1.21134e-014
lhumerus -58.5863 -0.380245 79.3758
lradius 44.8514
lwrist -0.469792
lhand 4.268 9.84158
lfingers 7.12502
lthumb 29.6715 37.4878
rfemur 9.09816 12.0078 26.4145
rtibia 14.2317
rfoot -12.0758 0.897871
rtoes -17.9535
lfemur -33.9083 -3.17621 -10.4268
ltibia 35.3248
lfoot -20.2108 -10.6998
ltoes -9.36438
277
root -25.6299 17.6811 -1.10804 -23.4775 81.4912 -31.6647
lowerback 15.7355 0.499908 1.98122
upperback 3.57751 1.21381 1.25904
thorax -5.00094 0.645618 -0.0379159
lowerneck -6.36468 2.14047 3.12961
upperneck -3.13379 2.70187 -4.01729
head 0.200604 1.33152 -1.72248
rclavicle 1.67973e-014 5.1684e-015
rhumerus -47.82 11.3943 -84.4069
rradius 49.378
rwrist -4.82217
rhand -9.08686 -14.2899
rfingers 7.12502
rthumb 16.8628 -43.5778
lclavicle 1.67973e-014 5.1684e-015
lhumerus -58.6738 -0.616085 79.3603
lradius 45.2714
lwrist -0.109685
lhand 4.17575 9.92123
lfingers 7.12502
lthumb 29.5835 37.5831
rfemur 9.25938 11.9255 26.3927
rtibia 15.2518
rfoot -11.822 1.69867
rtoes -18.6694
lfemur -33.6871 -3.14192 -10.4316
ltibia 34.8188
lfoot -19.3499 -10.6411
ltoes -9.50377
278
root -25.4429 17.6514 -1.10268 -23.3451 81.1646 -31.4121
lowerback 15.6641 0.592827 1.78135
upperback 3.58605 1.29121 1.12394
thorax -4.95329 0.68477 -0.0813589
lowerneck -6.33945 2.13293 3.20356
upperneck -2.9859 2.68802 -3.69031
head 0.237109 1.32374 -1.63015
rclavicle 2.38542e-015 5.56597e-015
rhumerus -47.6949 11.5783 -84.505
rradius 49.6108
rwrist -4.84675
rhand -9.13978 -14.2035
rfingers 7.12502
rthumb 16.8119 -43.4957
lclavicle 2.38542e-015 5.56597e-015
lhumerus -58.7731 -0.850895 79.3573
lradius 45.7069
lwrist 0.239011
lhand 4.07181 9.96923
lfingers 7.12502
lthumb 29.4843 37.6487
rfemur 9.25007 11.8204 26.3527
rtibia 16.6805
rfoot -11.6795 2.56922
rtoes -19.2532
lfemur -33.3991 -3.03875 -10.4483
ltibia 34.6576
lfoot -18.4425 -10.7071
ltoes -8.88593
279
root -25.2578 17.6173 -1.09814 -23.2842 80.8071 -31.1933
lowerback 15.6274 0.674529 1.57503
upperback 3.60611 1.35601 1.00555
thorax -4.91308 0.718257 -0.101322
lowerneck -6.2762 2.13774 3.27958
upperneck -2.89327 2.69083 -3.38483
head 0.250967 1.32532 -1.54556
rclavicle 1.43125e-014 1.59028e-015
rhumerus -47.5374 11.7501 -84.5774
rradius 49.8047
rwrist -4.848
rhand -9.25413 -14.1119
rfingers 7.12502
rthumb 16.7018 -43.4134
lclavicle 1.43125e-014 1.59028e-015
lhumerus -58.8624 -1.07221 79.3759
lradius 46.1443
lwrist 0.568264
lhand 3.95155 9.97392
lfingers 7.12502
lthumb 29.3694 37.6735
rfemur 9.08783 11.7277 26.3102
rtibia 18.4709
rfoot -11.6202 3.47902
rtoes -19.6285
lfemur -33.0655 -2.89004 -10.4558
ltibia 34.8646
lfoot -17.7292 -10.8907
ltoes -7.99153
280
root -25.0757 17.5807 -1.09463 -23.3405 80.4208 -31.0429
lowerback 15.6614 0.739267 1.37669
upperback 3.63369 1.40361 0.904098
thorax -4.90372 0.743498 -0.105661
lowerneck -6.14836 2.15487 3.35169
upperneck -2.88704 2.71182 -3.10303
head 0.228025 1.33699 -1.4686
rclavicle -5.56597e-015 7.55382e-015
rhumerus -47.3496 11.8963 -84.6305
rradius 49.9531
rwrist -4.81847
rhand -9.45078 -14.0155
rfingers 7.12502
rthumb 16.5125 -43.3328
lclavicle -5.56597e-015 7.55382e-015
lhumerus -58.9381 -1.26811 79.4088
lradius 46.5665
lwrist 0.862596
lhand 3.81588 9.9453
lfingers 7.12502
lthumb 29.2399 37.6675
rfemur 8.79137 11.6505 26.273
rtibia 20.5794
rfoot -11.5469 4.42941
rtoes -19.5062
lfemur -32.692 -2.70596 -10.4433
ltibia 35.4271
lfoot -17.2281 -11.0563
ltoes -6.60591
281
root -24.8974 17.5416 -1.09168 -23.5201 80.0232 -30.9611
lowerback 15.7754 0.815288 1.22501
upperback 3.63374 1.47338 0.776962
thorax -4.96484 0.77821 -0.169621
lowerneck -5.7785 2.14465 3.53361
upperneck -3.03393 2.6961 -2.86432
head 0.118518 1.33032 -1.4285
rclavicle -8.05078e-015 2.14687e-014
rhumerus -47.233 11.8336 -84.7016
rradius 50.0577
rwrist -4.72628
rhand -9.74313 -13.9155
rfingers 7.12502
rthumb 16.231 -43.2561
lclavicle -8.05078e-015 2.14687e-014
lhumerus -59.0268 -1.60848 79.4417
lradius 46.9439
lwrist 1.13584
lhand 3.66875 9.89317
lfingers 7.12502
lthumb 29.0994 37.6398
rfemur 8.38846 11.5983 26.2505
rtibia 22.972
rfoot -11.4644 5.34697
rtoes -19.016
lfemur -32.2859 -2.5172 -10.4062
ltibia 36.2951
lfoot -17.0378 -11.3165
ltoes -4.7459
282
root -24.7228 17.5011 -1.08856 -23.6823 79.6308 -30.7976
lowerback 15.9827 0.890265 1.07455
upperback 3.6229 1.54251 0.634157
thorax -5.08745 0.812259 -0.253077
lowerneck -5.23337 2.12195 3.77468
upperneck -3.31493 2.66882 -2.66975
head -0.0600805 1.31704 -1.41584
rclavicle -1.15295e-014 -8.74653e-015
rhumerus -47.1556 11.6179 -84.7857
rradius 50.1157
rwrist -4.59323
rhand -10.1485 -13.8543
rfingers 7.12502
rthumb 15.8406 -43.2263
lclavicle -1.15295e-014 -8.74653e-015
lhumerus -59.0932 -2.0174 79.4695
lradius 47.2485
lwrist 1.36618
lhand 3.49925 9.7946
lfingers 7.12502
lthumb 28.9375 37.5691
rfemur 7.90062 11.5871 26.2244
rtibia 25.6193
rfoot -11.3472 6.17239
rtoes -17.9107
lfemur -31.8328 -2.3542 -10.3674
ltibia 37.3859
lfoot -17.2024 -11.6107
ltoes -2.72741
283
root -24.5522 17.4597 -1.08487 -23.6163 79.2603 -30.3473
lowerback 16.2748 0.97243 0.889876
upperback 3.60039 1.61398 0.462247
thorax -5.26817 0.847459 -0.351105
lowerneck -4.52588 2.0852 4.08243
upperneck -3.71501 2.63037 -2.52731
head -0.300909 1.29633 -1.43506
rclavicle 5.56597e-015 8.34896e-015
rhumerus -47.1313 11.2424 -84.8902
rradius 50.1318
rwrist -4.42618
rhand -10.697 -13.8349
rfingers 7.12502
rthumb 15.3124 -43.248
lclavicle 5.56597e-015 8.34896e-015
lhumerus -59.1139 -2.49744 79.4822
lradius 47.4556
lwrist 1.53688
lhand 3.3146 9.64817
lfingers 7.12502
lthumb 28.7611 37.4528
rfemur 7.33145 11.6115 26.145
rtibia 28.4759
rfoot -11.2749 6.80126
rtoes -16.5019
lfemur -31.3294 -2.22882 -10.3731
ltibia 38.5928
lfoot -17.6903 -11.8807
ltoes -0.814338
284
root -24.3853 17.4184 -1.0794 -23.1254 78.9384 -29.4145
lowerback 16.6382 1.0665 0.621007
upperback 3.57518 1.68358 0.251744
thorax -5.49134 0.882767 -0.444756
lowerneck -3.71843 2.03497 4.42732
upperneck -4.18192 2.58382 -2.42231
head -0.579203 1.26927 -1.47617
rclavicle -1.8487e-014 7.55382e-015
rhumerus -47.1593 10.7322 -85.0195
rradius 50.114
rwrist -4.24466
rhand -11.4119 -13.8867
rfingers 7.12502
rthumb 14.6237 -43.3511
lclavicle -1.8487e-014 7.55382e-015
lhumerus -59.0399 -3.04124 79.4723
lradius 47.5199
lwrist 1.63123
lhand 3.11324 9.45125
lfingers 7.12502
lthumb 28.5688 37.2883
rfemur 6.69595 11.6582 25.9609
rtibia 31.4917
rfoot -11.3094 7.16668
rtoes -14.9398
lfemur -30.7479 -2.13847 -10.4849
ltibia 39.7913
lfoot -18.4335 -12.1107
ltoes 0.780748
